<?xml version="1.0" encoding="UTF-8"?>
<svg width="23" height="23" viewBox="0 0 23 23" xmlns="http://www.w3.org/2000/svg">
    <!-- 彩虹饼图背景 -->
    <g>
        <!-- 红色扇形 -->
        <path d="M11.5 11.5 L11.5 1 A10.5 10.5 0 0 1 20.8 6.3" fill="#FF6B6B"/>
        <!-- 橙色扇形 -->
        <path d="M11.5 11.5 L20.8 6.3 A10.5 10.5 0 0 1 20.8 16.7" fill="#FF8C42"/>
        <!-- 黄色扇形 -->
        <path d="M11.5 11.5 L20.8 16.7 A10.5 10.5 0 0 1 11.5 22" fill="#FFD93D"/>
        <!-- 绿色扇形 -->
        <path d="M11.5 11.5 L11.5 22 A10.5 10.5 0 0 1 2.2 16.7" fill="#6BCB77"/>
        <!-- 蓝色扇形 -->
        <path d="M11.5 11.5 L2.2 16.7 A10.5 10.5 0 0 1 2.2 6.3" fill="#4D96FF"/>
        <!-- 紫色扇形 -->
        <path d="M11.5 11.5 L2.2 6.3 A10.5 10.5 0 0 1 11.5 1" fill="#9B59B6"/>
    </g>
    
    <!-- 中心白色圆形背景 -->
    <circle cx="11.5" cy="11.5" r="7" fill="white"/>
    
    <!-- 中心的眼睛图标 -->
    <g transform="translate(5.5,8)">
        <path d="M6 0C3 0 0.6 1.8 0 3.6C0.6 5.4 3 7.2 6 7.2C9 7.2 11.4 5.4 12 3.6C11.4 1.8 9 0 6 0ZM6 6C4.67 6 3.6 4.92 3.6 3.6C3.6 2.27 4.67 1.2 6 1.2C7.32 1.2 8.4 2.27 8.4 3.6C8.4 4.92 7.32 6 6 6ZM6 2.16C5.2 2.16 4.56 2.8 4.56 3.6C4.56 4.4 5.2 5.04 6 5.04C6.8 5.04 7.44 4.4 7.44 3.6C7.44 2.8 6.8 2.16 6 2.16Z" 
        fill="black"/>
    </g>
</svg>